<!DOCTYPE svg PUBLIC "-//W3C//DTD SVG 1.1//EN" "http://www.w3.org/Graphics/SVG/1.1/DTD/svg11.dtd">
<!-- Uploaded to: SVG Repo, www.svgrepo.com, Transformed by: SVG Repo Mixer Tools -->
<svg width="800px" height="800px" viewBox="0 0 32 32" id="svg5" version="1.1" xmlns="http://www.w3.org/2000/svg" xmlns:svg="http://www.w3.org/2000/svg" fill="#000000">
<g id="SVGRepo_bgCarrier" stroke-width="0"/>
<g id="SVGRepo_tracerCarrier" stroke-linecap="round" stroke-linejoin="round"/>
<g id="SVGRepo_iconCarrier"> <defs id="defs2"/> <g id="layer1" transform="translate(36,-244)"> <path d="m -31.371094,255.00586 c -1.625564,0 -2.864805,1.51618 -2.589843,3.10351 l 2.27539,13.13477 c 0.27851,1.60776 1.701467,2.76172 3.314453,2.76172 h 16.767578 c 1.6146248,0 3.0129936,-1.16108 3.3105472,-2.74805 a 1.0001,1.0001 0 0 0 0.00195,-0.0137 l 2.2734375,-13.12109 v -0.002 c 0.2984384,-1.59859 -0.9594241,-3.11523 -2.5859375,-3.11523 z m 0,2 h 22.7675784 c 0.4158021,0 0.6977222,0.33936 0.6210937,0.74805 a 1.0001,1.0001 0 0 0 -0.00195,0.0137 l -2.2753911,13.12695 c -0.124292,0.65116 -0.680335,1.11133 -1.34375,1.11133 h -16.767578 c -0.666611,0 -1.23316,-0.46316 -1.34375,-1.10156 l -2.27539,-13.13672 c -0.07374,-0.42569 0.201707,-0.76172 0.61914,-0.76172 z" id="rect40272" style="color:#000000;fill:#000000;fill-rule:evenodd;stroke-linecap:round;stroke-linejoin:round;stroke-miterlimit:4.1;-inkscape-stroke:none"/> <path d="m -24.695312,246.07227 a 1,1 0 0 0 -0.556641,0.52734 l -4,9 a 1,1 0 0 0 0.507812,1.32031 1,1 0 0 0 1.320313,-0.50781 l 4,-9 a 1,1 0 0 0 -0.507813,-1.32031 1,1 0 0 0 -0.763671,-0.0195 z" id="path41727" style="color:#000000;fill:#000000;fill-rule:evenodd;stroke-linecap:round;stroke-linejoin:round;stroke-miterlimit:4.1;-inkscape-stroke:none"/> <path d="m -15.279297,246.07227 a 1,1 0 0 0 -0.763672,0.0195 1,1 0 0 0 -0.507812,1.32031 l 4,9 a 1,1 0 0 0 1.318359,0.50781 1,1 0 0 0 0.507813,-1.32031 l -4,-9 a 1,1 0 0 0 -0.554688,-0.52734 z" id="path41729" style="color:#000000;fill:#000000;fill-rule:evenodd;stroke-linecap:round;stroke-linejoin:round;stroke-miterlimit:4.1;-inkscape-stroke:none"/> <path d="m -20,259.00586 a 1,1 0 0 0 -1,1 v 8 a 1,1 0 0 0 1,1 1,1 0 0 0 1,-1 v -8 a 1,1 0 0 0 -1,-1 z" id="path43195" style="color:#000000;fill:#000000;fill-rule:evenodd;stroke-linecap:round;stroke-linejoin:round;stroke-miterlimit:4.1;-inkscape-stroke:none"/> <path d="m -24,259.00586 a 1,1 0 0 0 -1,1 v 8 a 1,1 0 0 0 1,1 1,1 0 0 0 1,-1 v -8 a 1,1 0 0 0 -1,-1 z" id="path43243" style="color:#000000;fill:#000000;fill-rule:evenodd;stroke-linecap:round;stroke-linejoin:round;stroke-miterlimit:4.1;-inkscape-stroke:none"/> <path d="m -16,259.00586 a 1,1 0 0 0 -1,1 v 8 a 1,1 0 0 0 1,1 1,1 0 0 0 1,-1 v -8 a 1,1 0 0 0 -1,-1 z" id="path43245" style="color:#000000;fill:#000000;fill-rule:evenodd;stroke-linecap:round;stroke-linejoin:round;stroke-miterlimit:4.1;-inkscape-stroke:none"/> </g> </g>
</svg>